# xmcd
#
# Track frame offsets:
#	150
#	20646
#	38333
#	50932
#	77155
#	89850
#	111213
#	129574
#	154309
#	169384
#	190342
#	215098
#	237054
#	259700
#
# Disc length: 3731 seconds
#
# Revision: 1
# Processed by: cddbd v1.4PL0 Copyright (c) Steve Scherf et al.
# Submitted via: EasyCDDAExtractor 4.6.0.1
#
DISCID=cb0e910e
DTITLE=Boyz II Men - Legacy
DYEAR=2001
DGENRE=R&B
TTITLE0=can't let her go
TTITLE1=motownphilly
TTITLE2=it's so hard to say goodbye to yesterday
TTITLE3=end of the road
TTITLE4=in the still of the nite, i'll remember
TTITLE5=hey lover (feat. LL Cool J)
TTITLE6=i'll make love to you
TTITLE7=on bended knee
TTITLE8=water runs dry
TTITLE9=one sweet day (feat. Mariah Carey)
TTITLE10=doin' just fine
TTITLE11=4 seasons of loneliness
TTITLE12=a song for mama
TTITLE13=pass you by
EXTD=
EXTT0=
EXTT1=
EXTT2=
EXTT3=
EXTT4=
EXTT5=
EXTT6=
EXTT7=
EXTT8=
EXTT9=
EXTT10=
EXTT11=
EXTT12=
EXTT13=
PLAYORDER=
